<?xml version="1.0" standalone="no"?>
<!DOCTYPE svg PUBLIC "-//W3C//DTD SVG 20010904//EN"
 "http://www.w3.org/TR/2001/REC-SVG-20010904/DTD/svg10.dtd">
<svg version="1.0" xmlns="http://www.w3.org/2000/svg"
 width="936.000000pt" height="440.000000pt" viewBox="0 0 936.000000 440.000000"
 preserveAspectRatio="xMidYMid meet">

<g transform="translate(0.000000,440.000000) scale(0.100000,-0.100000)"
fill="#000000" stroke="none">
<path d="M7922 3924 c3 -3 201 -7 439 -10 665 -7 860 -11 866 -18 4 -3 -20 -7
-53 -7 l-59 -2 47 -6 c58 -8 77 -24 61 -49 -6 -9 -17 -16 -26 -14 -8 1 -26
-11 -40 -28 -21 -24 -33 -30 -66 -30 l-41 0 0 -40 c0 -27 -6 -45 -19 -57 -27
-23 -18 -33 23 -26 19 3 58 0 86 -7 41 -10 54 -10 60 0 5 8 25 11 58 9 l51 -4
4 105 3 105 3 -125 c2 -69 5 -117 8 -108 2 10 10 15 19 11 13 -5 15 7 10 88
-7 127 -9 139 -23 139 -18 0 -16 19 2 26 8 4 12 10 9 15 -3 5 0 9 5 9 6 0 11
7 11 15 0 13 -87 15 -722 15 -397 0 -719 -2 -716 -6z"/>
<path d="M9153 3853 c9 -2 25 -2 35 0 9 3 1 5 -18 5 -19 0 -27 -2 -17 -5z"/>
<path d="M9350 3075 c0 -41 -19 -150 -25 -143 -1 2 -5 28 -8 58 -4 36 -3 48 3
35 6 -15 9 -8 9 29 1 27 -2 46 -6 43 -3 -4 -12 -2 -20 4 -10 9 -13 6 -13 -18
l0 -29 -52 7 c-36 5 -56 3 -63 -5 -6 -6 -19 -16 -30 -22 -12 -7 -21 -24 -23
-43 -3 -30 -5 -31 -53 -31 l-49 0 0 -40 c0 -22 5 -40 10 -40 6 0 10 8 10 17 0
14 2 15 13 4 10 -11 10 -14 0 -18 -9 -3 -13 -30 -13 -84 0 -56 -4 -79 -12 -79
-7 0 -22 -18 -32 -40 -14 -28 -26 -40 -40 -40 -15 0 -25 -10 -32 -29 -10 -26
-15 -28 -55 -25 -24 3 -52 6 -61 8 -9 2 -24 -4 -33 -15 -17 -17 -18 -17 -38 2
-21 19 -97 28 -97 11 0 -12 -92 -32 -145 -32 -24 0 -47 -4 -50 -10 -3 -5 -15
-10 -26 -10 -10 0 -19 -6 -19 -14 0 -7 -6 -19 -14 -25 -8 -7 -12 -20 -9 -30 4
-15 -3 -19 -38 -24 -28 -4 -52 -1 -71 9 -26 14 -28 13 -28 -5 0 -24 -16 -29
-110 -32 -41 -2 -82 -6 -90 -10 -73 -32 -130 -52 -158 -54 -18 -2 -44 -11 -58
-20 -21 -14 -31 -15 -54 -5 -26 11 -32 9 -56 -13 -21 -20 -34 -24 -65 -21 -22
3 -39 1 -39 -4 0 -5 -64 -15 -142 -22 -128 -11 -144 -15 -166 -37 -15 -15 -32
-23 -43 -20 -16 4 -47 -1 -114 -19 -11 -3 -38 -7 -60 -9 -21 -1 -41 -8 -43
-14 -3 -9 -7 -9 -18 0 -11 9 -18 8 -32 -4 -13 -12 -33 -15 -82 -12 -36 3 -56
2 -46 -1 15 -5 16 -8 5 -15 -9 -6 16 -8 66 -4 l80 5 -60 -14 c-33 -7 -73 -18
-88 -25 -16 -6 -38 -11 -49 -11 -18 0 -19 2 -7 17 12 15 12 16 -1 7 -18 -11
-49 -13 -227 -17 -110 -2 -137 -6 -153 -20 -21 -17 -46 -15 -35 4 11 16 -31 9
-53 -9 -20 -18 -20 -18 11 -32 18 -8 35 -13 40 -12 4 1 7 -2 7 -8 0 -13 -16
-13 -58 0 -29 8 -32 7 -22 -5 10 -12 10 -15 -1 -15 -23 1 -90 36 -82 43 3 4 0
7 -8 8 -57 3 -89 7 -124 17 -22 6 -58 13 -80 16 -22 2 -55 8 -73 12 -31 6 -32
8 -17 24 23 25 8 31 -88 35 l-82 3 -9 55 c-5 30 -6 62 -3 70 4 11 39 15 177
19 187 6 195 8 185 62 -3 16 0 35 7 43 19 24 -4 31 -77 22 -133 -15 -203 -13
-222 4 -10 8 -30 20 -46 26 -29 11 -36 35 -12 45 8 3 15 12 15 21 0 9 9 15 23
15 57 1 298 28 305 34 4 4 12 22 18 39 8 23 20 34 43 41 18 5 45 21 60 35 15
14 47 39 69 55 36 25 42 34 42 65 0 24 7 42 20 54 26 22 28 62 3 52 -212 -89
-654 -135 -1283 -135 -415 0 -774 36 -942 94 -37 13 -70 21 -72 18 -8 -14 13
-50 32 -56 14 -5 26 -28 42 -82 18 -62 27 -77 48 -86 15 -6 31 -10 36 -9 6 1
19 -2 30 -8 12 -5 33 -12 48 -15 19 -4 30 -16 38 -42 8 -22 21 -39 36 -44 14
-6 88 -13 164 -16 l140 -7 15 -30 c21 -42 20 -46 -20 -63 -19 -8 -34 -20 -32
-27 2 -13 -1 -13 -188 -7 l-100 3 4 -54 c2 -30 8 -57 15 -61 6 -4 84 -8 174
-8 l162 0 0 -24 c0 -13 -3 -43 -6 -67 l-6 -44 -79 6 c-44 3 -85 11 -91 17 -13
13 -99 16 -113 4 -6 -4 -36 -18 -68 -31 -51 -21 -63 -22 -104 -12 -25 7 -55
19 -67 27 -23 16 -67 18 -94 5 -9 -4 -40 -16 -69 -25 -40 -13 -57 -14 -80 -5
-17 7 -118 12 -258 14 -224 3 -295 -4 -352 -33 -46 -24 -342 -35 -391 -15 -50
21 -107 9 -152 -29 -48 -41 -95 -73 -140 -94 -29 -14 -42 -14 -80 -4 -25 6
-61 13 -80 15 -19 1 -53 10 -75 19 -62 24 -114 20 -160 -11 -37 -25 -50 -28
-180 -34 -77 -4 -158 -13 -180 -20 -51 -16 -233 -17 -307 -2 -31 6 -83 25
-115 42 -174 89 -332 99 -575 35 -55 -14 -208 -23 -238 -13 -8 3 -31 13 -50
22 -30 14 -70 18 -240 19 -192 2 -209 0 -267 -21 -34 -13 -69 -21 -78 -18 -13
6 -15 -32 -14 -336 1 -188 4 -332 6 -319 4 21 10 22 91 24 48 1 102 2 121 3
157 8 566 18 844 20 471 4 1062 14 1250 21 l158 6 26 -26 c28 -28 69 -30 99
-6 7 7 14 9 14 4 0 -5 4 -3 8 4 11 16 211 16 228 -1 4 -4 14 -1 22 6 13 9 14
9 8 0 -8 -14 8 -18 58 -14 15 2 26 -2 23 -7 -4 -5 15 -9 41 -10 26 -1 80 -5
120 -8 69 -6 74 -5 79 15 7 28 24 27 20 -1 -2 -13 -2 -17 0 -10 3 7 9 10 14 7
5 -4 9 -1 9 4 0 6 5 11 11 11 6 0 9 -7 6 -15 -4 -8 -1 -17 5 -21 7 -5 8 -2 3
6 -6 10 -4 12 9 7 10 -4 15 -3 11 3 -3 6 1 10 9 10 9 0 16 -5 16 -11 0 -6 8
-9 17 -7 22 4 68 -36 59 -51 -4 -6 -22 -11 -41 -11 -18 0 -36 -6 -38 -12 -4
-10 -6 -10 -6 0 -1 15 -31 16 -31 0 0 -6 -9 -1 -20 12 -11 13 -20 18 -20 12 0
-7 -4 -12 -10 -12 -5 0 -10 8 -10 18 0 11 -3 13 -8 5 -11 -18 -89 -22 -642
-33 -278 -6 -723 -15 -990 -20 -550 -11 -757 -20 -720 -31 14 -4 42 -7 63 -8
21 -1 45 -7 52 -15 12 -12 91 -22 310 -39 22 -2 -12 -5 -75 -6 -69 -1 -107 -6
-95 -10 l20 -8 -20 -5 c-22 -6 144 -12 210 -8 22 1 45 6 50 10 6 5 64 11 130
14 195 9 1214 14 1165 6 -44 -7 -44 -7 -10 -9 l35 -3 -28 -8 c-16 -5 -100 -9
-187 -9 -87 0 -170 -5 -186 -11 -16 -6 -98 -12 -183 -13 -113 -2 -155 -5 -159
-15 -2 -7 -13 -10 -28 -6 -13 3 -24 2 -24 -4 0 -6 -19 -7 -46 -4 -35 4 -45 2
-40 -7 4 -6 22 -12 39 -12 258 -7 497 -21 497 -30 0 -5 -56 -8 -124 -6 -115 2
-149 -3 -133 -19 10 -10 95 -13 397 -15 157 0 312 -4 345 -8 l60 -7 -99 -8
c-55 -5 -147 -6 -205 -2 -58 3 -293 8 -521 11 -510 7 -615 11 -643 27 -21 12
-20 13 18 16 22 2 44 7 48 12 11 10 -82 0 -105 -12 -17 -8 -119 -17 -203 -18
-37 0 -38 -1 -19 -14 11 -8 41 -17 65 -19 24 -3 -4 -3 -64 -2 -59 1 -110 -1
-112 -6 -3 -4 6 -16 21 -26 30 -19 82 -22 734 -43 413 -13 564 -27 323 -29
-84 0 -153 -5 -153 -10 0 -8 117 -15 405 -24 39 -1 79 -8 90 -14 22 -14 -70
-13 -608 9 -158 6 -290 8 -294 5 -3 -4 34 -7 83 -7 52 0 83 -4 76 -9 -8 -5 30
-11 95 -14 159 -10 651 -27 703 -24 100 4 483 -6 450 -12 -54 -9 218 -31 388
-31 131 0 143 -2 140 -17 -3 -16 9 -18 135 -18 144 0 162 5 155 42 -2 13 -11
17 -33 15 -17 -2 -42 1 -55 7 -21 8 -16 10 32 10 l56 1 0 105 c0 57 4 109 7
116 6 8 243 10 897 6 490 -3 893 -8 896 -11 8 -8 8 -313 0 -321 -8 -9 -190
-11 -578 -7 -384 4 -1011 -8 -1033 -20 -11 -6 -23 -6 -30 0 -7 5 -224 12 -507
16 -272 3 -511 10 -530 14 l-35 8 40 7 c22 4 58 7 80 8 22 0 49 4 60 9 12 5
-51 8 -160 8 -119 0 -165 -3 -135 -8 25 -5 55 -6 66 -3 12 2 25 0 28 -6 4 -6
-8 -13 -28 -17 -19 -3 -52 -12 -72 -19 -34 -12 -30 -13 82 -19 66 -3 223 -8
349 -11 127 -3 280 -8 340 -12 61 -4 207 -8 325 -9 118 -1 249 -4 290 -6 47
-2 87 1 108 10 25 10 59 11 130 6 63 -5 90 -10 77 -15 -17 -6 -16 -8 8 -8 16
-1 26 -5 23 -10 -3 -4 -39 -8 -80 -9 -41 0 -83 -5 -93 -11 -14 -8 -9 -9 22 -5
33 4 37 3 22 -6 -12 -8 -60 -10 -151 -6 -131 5 -183 0 -188 -19 -2 -5 17 -13
42 -17 47 -9 244 -29 293 -30 37 -1 34 -14 -4 -22 -44 -9 -56 -7 -39 4 12 8
10 10 -10 11 -14 1 -37 3 -52 5 -19 2 -28 -2 -28 -12 0 -10 -13 -14 -46 -14
-37 0 -45 3 -40 15 7 19 5 19 -30 0 -16 -8 -39 -15 -52 -15 -20 0 -52 -20 -52
-33 0 -2 45 -4 100 -4 84 0 104 -3 121 -19 21 -19 21 -19 -22 -25 -24 -3 -62
-9 -84 -13 -39 -7 -39 -7 -15 8 l25 15 -32 1 c-21 0 -32 -5 -30 -12 1 -7 -9
-14 -23 -16 -14 -2 -28 -9 -31 -14 -4 -6 -39 -10 -83 -9 -56 1 -81 -2 -91 -13
-10 -9 -11 -17 -5 -21 5 -3 10 -1 10 5 0 7 15 10 38 8 l37 -3 5 -61 5 -62 38
15 c20 8 37 19 37 24 0 5 5 9 10 9 19 0 10 -36 -14 -57 -17 -15 -45 -24 -88
-28 -34 -4 -65 -10 -68 -14 -12 -19 -71 -23 -95 -7 -13 9 -31 16 -40 16 -8 0
-15 5 -15 10 0 6 -5 10 -11 10 -5 0 -7 -4 -4 -10 4 -6 -6 -10 -21 -10 -27 0
-27 -1 -8 -16 18 -14 16 -15 -30 -10 -27 3 -59 6 -72 6 -15 0 -24 6 -24 15 0
20 -6 19 -30 -5 -18 -18 -31 -20 -101 -17 -76 3 -80 2 -77 -18 3 -17 10 -20
56 -18 50 1 52 0 46 -20 -3 -12 -13 -29 -20 -38 -8 -8 -14 -19 -14 -22 0 -4
1346 -7 2990 -7 l2991 0 -2 1560 c0 858 -3 1560 -5 1560 -2 0 -4 -20 -4 -45z
m-53 -132 c-3 -10 -5 -2 -5 17 0 19 2 27 5 18 2 -10 2 -26 0 -35z m-17 7 c0
-13 -20 -13 -40 0 -12 8 -9 10 13 10 15 0 27 -4 27 -10z m-60 -57 c0 -7 -4
-13 -10 -13 -5 0 -10 12 -10 28 0 21 2 24 10 12 5 -8 10 -21 10 -27z m105
-178 c-4 -42 -10 -74 -12 -71 -3 2 -2 39 2 81 4 42 10 74 12 71 3 -2 2 -39 -2
-81z m-3707 -195 c2 -8 12 -21 21 -28 14 -12 14 -15 -9 -32 -14 -10 -34 -27
-44 -36 -15 -14 -45 -18 -141 -22 -68 -2 -125 0 -128 4 -2 5 -2 35 0 66 l5 57
117 3 c170 4 174 4 179 -12z m-484 4 c12 -5 16 -21 16 -65 l0 -59 -82 0 c-46
0 -107 -3 -135 -6 -46 -6 -53 -4 -53 10 0 10 -15 23 -35 32 -32 13 -49 44 -25
44 6 0 15 11 20 25 9 25 10 25 144 25 74 0 141 -3 150 -6z m510 -242 c3 -6 3
-51 -1 -101 l-6 -91 -37 0 c-43 0 -233 46 -271 66 -30 15 -269 10 -304 -7 -40
-19 -170 -36 -194 -26 -20 10 -22 16 -19 81 l3 71 155 5 c317 10 668 11 674 2z
m2020 -81 c12 -19 -31 -39 -94 -43 -36 -3 -59 -3 -52 0 6 2 10 8 7 13 -3 4 4
11 17 13 13 3 41 9 63 14 54 13 53 13 59 3z m-461 -67 c3 -3 -3 -14 -14 -25
-13 -13 -27 -17 -44 -13 -32 8 -41 22 -19 31 10 4 19 2 22 -5 5 -17 22 -15 22
3 0 15 21 21 33 9z m-583 -84 c0 -11 -28 -18 -92 -22 -54 -4 -65 8 -15 16 105
17 107 18 107 6z m-2150 -241 l0 -89 -39 0 c-50 0 -71 21 -71 70 0 31 5 43 24
55 14 9 33 15 43 13 12 -2 18 3 19 17 2 33 3 36 14 30 6 -3 10 -46 10 -96z
m-412 75 c26 -18 28 -41 6 -72 -14 -21 -14 -25 0 -47 9 -13 16 -29 16 -35 0
-19 -15 -10 -38 25 -29 46 -60 47 -64 3 -6 -60 -23 -24 -23 47 0 39 1 76 3 83
6 17 73 15 100 -4z m862 -57 c0 -74 -18 -107 -59 -107 -32 0 -51 16 -51 45 0
19 1 19 19 -4 10 -14 25 -22 37 -19 16 3 19 13 22 68 3 75 8 94 22 85 5 -3 10
-34 10 -68z m-340 48 c0 -7 8 -18 18 -24 16 -9 16 -10 0 -16 -24 -9 -26 -95
-3 -95 8 0 15 -5 15 -11 0 -6 -10 -9 -22 -7 -20 3 -23 10 -26 53 -2 27 -9 53
-15 58 -9 7 -9 10 1 14 6 2 12 13 12 24 0 10 5 19 10 19 6 0 10 -7 10 -15z
m-380 -35 c41 -41 16 -120 -38 -120 -36 0 -62 27 -62 65 0 64 59 96 100 55z
m118 4 c18 -12 22 -25 22 -70 l0 -54 -43 0 c-46 0 -67 13 -67 42 0 20 28 38
59 38 12 0 21 7 21 15 0 24 -28 30 -49 11 -12 -11 -21 -13 -25 -7 -7 10 30 41
49 41 6 0 21 -7 33 -16z m396 -5 c47 -37 24 -119 -34 -119 -42 0 -62 25 -58
73 2 33 8 44 28 54 33 17 33 16 64 -8z m308 9 c11 -9 18 -31 19 -68 l3 -55
-49 0 c-45 0 -50 2 -53 24 -4 29 20 51 55 51 14 0 23 6 23 15 0 24 -29 29 -50
10 -11 -10 -22 -16 -25 -13 -10 9 6 37 23 41 30 8 38 7 54 -5z m142 -10 c18
-26 21 -71 6 -99 -8 -13 -21 -19 -45 -19 -31 0 -35 -3 -35 -26 0 -14 -4 -23
-10 -19 -5 3 -10 44 -10 90 0 79 1 84 23 88 45 9 56 6 71 -15z m120 6 c11 -10
16 -34 16 -70 l0 -54 -45 0 c-35 0 -47 4 -55 21 -14 26 11 59 46 59 28 0 42
19 23 31 -19 12 -25 11 -43 -6 -18 -19 -26 -19 -26 0 0 32 58 45 84 19z m127
6 c15 -9 19 -22 19 -70 0 -33 -4 -60 -10 -60 -5 0 -10 25 -10 55 0 40 -4 57
-15 61 -27 11 -45 -16 -45 -67 0 -27 -4 -49 -10 -49 -6 0 -10 28 -10 64 0 68
-2 65 53 75 5 0 17 -4 28 -9z m-2925 -355 c1 -19 -2 -35 -7 -35 -5 0 -6 -7 -3
-15 4 -8 1 -15 -5 -15 -11 0 -13 5 -15 55 -2 36 1 45 17 45 7 0 13 -15 13 -35z
m41 -63 c-16 -2 -31 -1 -34 2 -3 2 3 26 13 51 l17 46 17 -48 16 -48 -29 -3z
m481 26 c9 -11 29 -18 49 -18 36 0 43 13 16 29 -17 10 -17 10 0 11 9 0 17 5
17 11 0 7 -10 9 -26 5 -23 -6 -24 -5 -13 15 9 17 13 19 20 8 8 -12 11 -12 19
1 6 10 10 11 10 3 0 -7 10 -14 23 -14 l22 -2 -22 -4 c-27 -5 -31 -23 -5 -23
16 -1 16 -1 0 -11 -26 -15 -22 -27 10 -32 24 -4 23 -4 -8 -6 -19 -1 -51 -3
-72 -5 -29 -2 -39 2 -49 21 -16 30 -32 29 -49 -2 -7 -14 -17 -25 -22 -25 -12
0 -10 6 17 46 14 20 25 44 26 53 0 9 5 3 11 -14 6 -16 17 -38 26 -47z m320 64
c16 16 17 -45 2 -73 -10 -17 -7 -19 27 -20 l38 -2 -45 -7 c-53 -9 -85 3 -72
27 5 9 7 25 4 37 -5 18 -3 19 10 9 8 -7 18 -10 22 -6 4 4 -3 16 -16 26 -20 16
-21 17 -2 8 15 -7 24 -7 32 1z m37 -37 c-3 -28 -1 -33 12 -28 11 4 14 2 9 -5
-4 -7 -14 -12 -22 -12 -10 0 -14 13 -14 46 0 27 4 43 10 39 5 -3 8 -21 5 -40z
m312 4 c-15 -24 -21 -16 -13 18 6 20 10 23 16 13 5 -7 3 -21 -3 -31z m401 32
c6 -1 12 -8 12 -16 0 -8 -6 -15 -12 -16 -10 0 -10 -2 0 -6 6 -2 9 -9 6 -14 -3
-6 0 -17 8 -26 11 -14 11 -15 -2 -11 -8 3 -22 2 -31 -3 -49 -25 -94 -14 -69
16 7 9 10 28 7 44 -8 41 -10 40 81 32z m93 -31 c4 -3 4 -12 -1 -20 -8 -13 -10
-13 -10 1 0 9 -7 20 -16 23 -12 5 -13 8 -2 20 11 12 14 12 17 -2 2 -10 7 -19
12 -22z m121 -20 c-3 -33 -8 -40 -26 -40 -19 1 -19 2 -3 11 9 5 17 21 17 34 0
20 -5 25 -27 26 l-28 2 28 4 c15 2 27 10 27 16 0 9 2 9 8 0 4 -7 6 -30 4 -53z
m964 -11 c18 -20 74 -27 74 -9 0 6 -6 10 -14 10 -17 0 -27 24 -20 45 4 10 13
13 25 10 12 -4 19 -2 19 7 0 9 2 10 8 2 4 -7 16 -14 27 -17 18 -4 18 -5 -2 -6
-25 -1 -32 -21 -8 -21 8 0 15 -4 15 -10 0 -5 -7 -10 -15 -10 -26 0 -16 -18 13
-23 15 -2 -9 -4 -53 -3 -72 1 -81 3 -90 23 l-9 21 -11 -20 c-12 -25 -41 -45
-51 -35 -4 3 7 22 25 42 17 20 31 43 32 53 0 9 5 4 9 -12 5 -15 17 -37 26 -47z
m308 56 c-8 -19 15 -20 30 0 9 12 14 5 28 -35 l16 -50 -34 0 c-25 0 -34 4 -35
18 0 13 -3 11 -10 -6 -8 -21 -10 -22 -25 -8 -10 10 -13 24 -9 37 4 12 9 29 10
38 2 9 4 17 4 19 1 1 8 2 16 2 9 0 12 -6 9 -15z m528 5 c6 0 8 -7 5 -15 -4 -8
-2 -17 3 -20 17 -11 11 -45 -7 -46 -15 0 -15 -2 2 -9 16 -7 11 -9 -20 -9 -70
-1 -81 6 -77 45 4 34 17 45 24 22 3 -7 10 -8 17 -4 11 7 11 10 0 17 -12 8 -11
11 1 19 8 5 21 8 28 5 8 -3 18 -5 24 -5z m540 -47 c-18 -37 -37 -45 -27 -10
12 43 28 68 36 56 4 -7 0 -27 -9 -46z m-4021 24 c-13 -13 -26 -3 -16 12 3 6
11 8 17 5 6 -4 6 -10 -1 -17z m128 2 c-15 -9 -32 -2 -24 11 3 5 13 6 21 3 12
-4 13 -8 3 -14z m145 -20 c1 -17 -2 -33 -6 -36 -5 -2 -8 15 -8 38 0 48 13 46
14 -2z m338 -9 c-5 -12 -7 -12 -10 3 -2 11 -9 16 -18 13 -12 -5 -12 -2 -3 15
10 20 11 20 24 3 7 -10 10 -25 7 -34z m211 -5 c-5 -28 -8 -34 -13 -21 -8 25 0
80 11 69 5 -5 6 -26 2 -48z m396 41 c10 -12 8 -13 -8 -9 -12 3 -18 9 -15 14 7
12 10 11 23 -5z m578 8 c-3 -3 -12 -4 -19 -1 -8 3 -5 6 6 6 11 1 17 -2 13 -5z
m248 -6 c-11 -6 -23 -16 -27 -22 -9 -13 -10 -3 -2 18 3 9 16 16 28 16 21 -1
21 -1 1 -12z m204 -9 c-7 -4 -17 -5 -22 -2 -5 3 -3 9 4 14 7 4 17 5 22 2 5 -3
3 -9 -4 -14z m832 -2 c-13 -13 -26 -3 -16 12 3 6 11 8 17 5 6 -4 6 -10 -1 -17z
m244 13 c-3 -6 0 -13 8 -16 9 -3 13 -13 10 -25 -3 -10 0 -19 6 -19 23 0 10
-16 -14 -18 -19 -1 -28 5 -35 24 -11 27 2 64 21 64 6 0 7 -5 4 -10z m271 -19
c11 9 14 8 14 -5 0 -10 -5 -14 -11 -11 -6 4 -13 -2 -16 -14 -3 -12 -12 -21
-20 -21 -13 0 -13 3 -3 15 9 11 10 19 3 26 -7 7 -12 2 -17 -15 -9 -36 -26 -33
-23 4 1 16 8 30 15 30 6 0 12 6 12 12 0 7 7 2 16 -10 13 -18 19 -21 30 -11z
m103 9 c-7 -5 -19 -6 -26 -3 -11 5 -12 8 -2 13 7 5 19 6 26 3 11 -5 12 -8 2
-13z m90 -1 c-11 -7 -11 -11 -1 -21 9 -9 15 -10 20 -1 5 7 13 3 24 -12 18 -23
17 -24 -14 -30 -21 -5 -34 -3 -36 4 -2 6 -10 11 -18 11 -16 0 -19 16 -3 25 6
4 8 13 5 20 -3 8 0 16 7 18 18 7 31 -4 16 -14z m421 -23 c0 -13 -20 -36 -30
-36 -4 0 -5 14 -2 30 2 17 2 30 -2 30 -3 0 -12 -13 -21 -30 -19 -37 -45 -40
-45 -6 0 36 46 58 78 38 12 -8 22 -20 22 -26z m-3341 -3 c-2 -35 -2 -35 -6 -8
-3 16 -10 33 -16 37 -8 5 -6 8 6 8 13 0 17 -8 16 -37z m1030 20 c0 -11 -3 -13
-6 -5 -8 19 -23 14 -23 -9 0 -11 5 -17 10 -14 6 3 10 1 10 -4 0 -6 -7 -11 -15
-11 -15 0 -21 40 -8 53 13 13 33 7 32 -10z m51 -12 c0 -21 -19 -41 -39 -41
-11 0 -8 5 8 16 15 11 21 23 18 35 -3 11 -1 17 4 13 5 -3 9 -13 9 -23z m220
19 c0 -5 -4 -10 -10 -10 -5 0 -10 5 -10 10 0 6 5 10 10 10 6 0 10 -4 10 -10z
m663 -22 c-6 -30 -5 -32 11 -19 9 8 15 20 12 28 -3 7 -1 13 4 13 16 0 11 -57
-5 -63 -8 -4 -17 -2 -20 4 -4 5 -10 7 -15 4 -12 -8 -7 48 5 57 15 11 15 11 8
-24z m374 26 c-3 -3 -12 -4 -19 -1 -8 3 -5 6 6 6 11 1 17 -2 13 -5z m696 -46
c4 1 7 -1 8 -5 1 -14 -18 -14 -29 0 -6 7 -8 24 -4 38 6 24 6 23 12 -6 3 -16 9
-29 13 -27z m342 30 c0 -6 14 -16 32 -22 48 -17 48 -23 -2 -22 -44 1 -45 1
-45 35 0 19 3 31 8 27 4 -4 7 -13 7 -18z m-3061 6 c15 -6 11 -34 -6 -34 -5 0
-6 5 -3 10 3 6 1 10 -4 10 -6 0 -11 -7 -11 -17 0 -9 -3 -14 -6 -10 -6 5 4 47
11 47 2 0 10 -3 19 -6z m105 -47 c1 -10 -3 -15 -9 -12 -5 3 -10 21 -9 38 0 27
2 29 9 12 5 -11 9 -28 9 -38z m1100 7 c16 -15 21 -23 12 -24 -22 0 -51 31 -50
54 0 14 3 16 6 7 3 -8 18 -25 32 -37z m509 21 c-3 -3 -9 2 -12 12 -6 14 -5 15
5 6 7 -7 10 -15 7 -18z m1066 9 c9 -24 7 -28 -9 -14 -17 14 -20 30 -6 30 5 0
12 -7 15 -16z m-3744 -26 c0 -5 -4 -8 -10 -8 -5 0 -10 10 -10 23 0 18 2 19 10
7 5 -8 10 -18 10 -22z m740 28 c0 -2 -7 -7 -16 -10 -8 -3 -12 -2 -9 4 6 10 25
14 25 6z m820 -6 c-20 -13 -33 -13 -25 0 3 6 14 10 23 10 15 0 15 -2 2 -10z
m506 -42 c-20 -14 -41 -8 -54 13 -7 12 -11 24 -8 27 3 3 6 0 6 -6 0 -7 9 -12
20 -12 12 0 20 7 20 18 0 12 4 10 13 -8 9 -17 10 -27 3 -32z m1424 32 c0 -5
-12 -10 -27 -12 l-28 -4 25 -12 25 -12 -30 3 c-40 3 -46 32 -8 45 29 10 43 7
43 -8z m-1894 -25 c-3 -9 -18 -15 -36 -15 -18 0 -29 4 -25 10 3 6 17 10 31 10
16 0 24 6 25 18 0 10 2 12 6 4 3 -7 2 -19 -1 -27z m221 5 c13 0 13 -3 3 -15
-11 -13 -15 -13 -21 -3 -5 7 -8 20 -8 28 0 10 2 11 6 3 2 -7 12 -13 20 -13z
m128 10 c3 -5 1 -10 -4 -10 -6 0 -11 5 -11 10 0 6 2 10 4 10 3 0 8 -4 11 -10z
m-601 -17 c9 4 16 2 16 -3 0 -6 -11 -10 -25 -10 -17 0 -25 5 -25 18 0 14 2 14
9 3 5 -8 16 -11 25 -8z m905 4 c6 -8 8 -17 4 -20 -7 -8 -33 11 -33 24 0 13 16
11 29 -4z m1602 -4 c3 1 2 -2 -2 -6 -7 -10 -39 2 -39 14 0 6 8 6 19 0 10 -6
20 -9 22 -8z m-3091 -2 c0 -5 -9 -11 -20 -14 -22 -6 -28 8 -7 16 19 8 27 8 27
-2z m125 -9 c-3 -3 -11 0 -18 7 -9 10 -8 11 6 5 10 -3 15 -9 12 -12z m125 14
c0 -2 -7 -7 -16 -10 -8 -3 -12 -2 -9 4 6 10 25 14 25 6z m-293 -84 c26 -14 44
-16 23 -2 -13 9 -13 10 0 10 25 0 43 -17 35 -31 -6 -11 -5 -11 5 -2 7 6 19 9
28 5 11 -4 14 -1 9 11 -3 9 -2 17 3 17 6 0 10 -4 10 -9 0 -19 52 -22 71 -5 11
9 19 14 19 9 0 -4 7 -1 17 6 15 13 15 12 5 -6 -9 -19 -7 -21 21 -25 67 -8 139
-3 148 11 6 10 10 8 17 -11 12 -32 7 -40 -28 -40 -15 0 -31 -6 -33 -12 -3 -7
-6 -4 -6 6 -1 20 -1 20 -15 0 -8 -11 -18 -15 -23 -10 -4 5 -2 11 5 13 6 3 12
9 12 15 0 6 -6 6 -15 -2 -8 -7 -15 -9 -16 -4 0 5 -4 0 -9 -11 -8 -18 -9 -18
-10 5 l-1 25 -15 -25 c-12 -21 -14 -22 -12 -5 2 15 -3 20 -24 20 -23 1 -28 -4
-29 -25 l-1 -25 -7 25 c-9 34 -51 41 -52 8 0 -22 -1 -22 -9 -3 -7 17 -9 17 -9
3 -1 -10 -5 -18 -11 -18 -5 0 -7 7 -4 15 4 9 0 15 -10 15 -9 0 -16 -8 -17 -17
0 -15 -2 -15 -9 2 -8 19 -9 19 -9 1 -1 -20 -1 -20 -15 0 -8 10 -18 16 -22 12
-4 -4 -13 -3 -21 3 -9 9 -13 8 -13 0 0 -7 -9 -9 -25 -5 -19 5 -25 2 -25 -10 0
-14 -3 -14 -22 4 -21 20 -23 20 -35 4 -11 -15 -13 -15 -13 -2 0 8 11 28 25 44
14 16 25 23 25 17 0 -7 10 -12 23 -12 17 1 18 2 4 6 -9 2 -15 8 -12 13 7 11
44 7 72 -8z m173 3 c0 -11 -31 -11 -39 -1 -9 10 -6 12 14 8 14 -2 25 -6 25 -7z
m90 5 c0 -5 -5 -10 -11 -10 -5 0 -7 5 -4 10 3 6 8 10 11 10 2 0 4 -4 4 -10z
m709 -27 c0 -10 -4 -27 -9 -38 -7 -17 -9 -17 -9 -3 -1 11 -6 15 -16 12 -8 -4
-12 -10 -9 -15 3 -5 -1 -9 -8 -9 -8 0 -15 13 -16 30 -1 17 2 30 8 30 5 0 10
-8 10 -17 1 -15 3 -15 18 4 21 27 32 29 31 6z m123 -39 c-7 -39 -22 -27 -22
18 0 37 1 40 13 24 8 -10 12 -29 9 -42z m349 23 c12 -3 19 -14 19 -29 l-1 -23
-14 25 -14 25 -10 -25 c-9 -22 -10 -20 -9 20 0 25 2 38 5 29 2 -10 13 -19 24
-22z m-981 13 c0 -6 10 -8 24 -4 18 4 27 1 36 -15 12 -23 1 -28 -18 -9 -9 9
-14 6 -21 -13 l-10 -24 -1 25 c-1 14 -4 19 -7 13 -2 -7 -8 -13 -13 -13 -11 0
-21 30 -14 41 7 12 24 11 24 -1z m1150 -37 c0 -15 -2 -16 -10 -3 -9 13 -10 13
-11 0 0 -10 -3 -8 -8 5 -5 11 -6 26 -4 32 7 18 33 -10 33 -34z m34 13 c-3 -14
-10 -23 -15 -20 -13 8 -11 42 4 47 17 6 19 3 11 -27z m960 11 c-6 -17 -41 -33
-51 -23 -13 13 8 37 27 31 13 -4 20 -2 20 6 0 7 2 10 5 7 3 -3 3 -12 -1 -21z
m-2009 3 c4 -6 12 -7 18 -3 17 11 137 12 137 2 0 -6 9 -5 21 1 15 9 24 8 35
-1 12 -10 17 -10 23 -1 10 16 41 5 41 -14 0 -8 -9 -14 -20 -14 -11 0 -20 -4
-20 -8 0 -5 -7 -9 -15 -9 -8 0 -15 9 -15 19 0 10 -4 18 -10 18 -5 0 -9 -3 -9
-7 1 -5 1 -16 0 -27 -1 -14 -4 -16 -14 -7 -8 6 -17 8 -20 4 -4 -3 -7 -1 -7 5
0 6 -7 9 -15 5 -9 -3 -22 2 -30 13 -14 18 -15 18 -21 -2 -6 -23 -17 -25 -49
-7 -12 6 -28 7 -40 2 -30 -12 -35 -11 -35 9 0 30 31 45 45 22z m425 -10 c9
-17 8 -20 -10 -20 -11 0 -20 -6 -20 -12 0 -9 -3 -9 -9 1 -10 16 3 51 19 51 5
0 14 -9 20 -20z m377 -10 c-1 -16 -5 -30 -8 -30 -9 0 -18 48 -11 55 13 13 21
3 19 -25z m143 -4 c0 -24 -3 -27 -10 -16 -6 10 -10 11 -10 3 0 -7 -7 -13 -15
-13 -8 0 -15 6 -15 13 0 8 -4 7 -10 -3 -5 -8 -10 -10 -10 -4 0 5 6 16 13 23
10 11 10 13 0 7 -7 -4 -13 -3 -13 2 0 15 9 19 40 19 27 0 30 -4 30 -31z m170
3 c0 -5 -9 -9 -20 -9 -11 0 -20 -6 -20 -12 0 -7 -6 -4 -12 6 -9 15 -7 22 7 32
19 14 45 3 45 -17z m75 21 c4 -6 11 -8 16 -5 12 8 11 -2 -1 -26 -14 -25 -30
-24 -30 1 0 11 -4 20 -10 20 -5 0 -10 -9 -10 -21 0 -11 -4 -17 -10 -14 -14 9
-12 21 6 39 18 18 30 20 39 6z m236 -18 c0 -14 2 -14 6 -2 14 36 53 32 53 -5
0 -13 -8 -26 -17 -30 -15 -5 -16 -4 -5 6 15 16 16 39 2 39 -6 0 -14 -8 -18
-17 -10 -25 -32 -27 -32 -3 0 11 -4 20 -10 20 -5 0 -10 -5 -10 -11 0 -5 -4 -7
-10 -4 -16 10 -12 23 8 28 23 5 32 -1 33 -21z m407 17 c18 9 23 8 32 -9 9 -17
8 -20 -10 -20 -11 0 -20 -4 -20 -10 0 -17 -24 -6 -33 14 -5 12 -13 16 -25 12
-14 -5 -14 -3 2 9 14 10 22 12 27 4 5 -8 12 -8 27 0z m112 -24 c0 -19 -4 -35
-9 -35 -5 0 -8 12 -6 28 2 15 4 30 4 35 1 4 3 7 6 7 3 0 5 -16 5 -35z m-1193
9 c3 -8 1 -20 -6 -27 -8 -8 -11 -7 -11 5 0 9 -5 20 -12 24 -8 5 -9 0 -6 -14 4
-14 2 -22 -6 -22 -19 0 -24 9 -19 31 6 23 51 26 60 3z m525 2 c5 -7 8 -7 8 -1
0 6 14 11 30 12 28 2 29 1 15 -13 -8 -8 -19 -13 -23 -10 -5 3 -20 -1 -35 -9
-24 -12 -28 -12 -37 5 -5 10 -10 20 -10 22 0 9 46 3 52 -6z m625 -8 c-3 -8 -6
-5 -6 6 -1 11 2 17 5 13 3 -3 4 -12 1 -19z m-150 -20 c-3 -7 -5 -2 -5 12 0 14
2 19 5 13 2 -7 2 -19 0 -25z m239 -3 c-10 -8 -24 -11 -29 -8 -6 4 -2 10 9 14
31 12 40 9 20 -6z m-206 -10 c0 -8 -4 -15 -10 -15 -5 0 -10 7 -10 15 0 8 5 15
10 15 6 0 10 -7 10 -15z m-3484 -236 c3 -5 -11 -9 -30 -9 -19 0 -37 4 -40 9
-3 5 10 9 29 9 19 0 38 -4 41 -9z m99 1 c-3 -5 -20 -10 -36 -10 -18 0 -28 4
-24 10 3 6 20 10 36 10 18 0 28 -4 24 -10z m85 0 c-8 -5 -26 -9 -40 -9 -23 1
-23 2 5 9 43 11 52 11 35 0z m657 -17 c-20 -2 -52 -2 -70 0 -17 2 0 4 38 4 39
0 53 -2 32 -4z m206 0 c-7 -2 -19 -2 -25 0 -7 3 -2 5 12 5 14 0 19 -2 13 -5z
m110 -10 c-13 -2 -33 -2 -45 0 -13 2 -3 4 22 4 25 0 35 -2 23 -4z m-616 -29
c-3 -3 -12 -4 -19 -1 -8 3 -5 6 6 6 11 1 17 -2 13 -5z m-1237 -24 c354 -17
383 -19 394 -30 5 -5 32 -10 58 -10 26 0 48 -4 48 -8 0 -5 -28 -5 -62 -1 -35
4 -130 10 -213 13 -251 10 -557 26 -615 33 l-55 7 50 7 c28 4 79 5 115 3 36
-2 162 -8 280 -14z m1513 13 c-13 -2 -33 -2 -45 0 -13 2 -3 4 22 4 25 0 35 -2
23 -4z m-615 -32 c9 -5 3 -8 -17 -7 -17 1 -31 4 -31 9 0 10 32 9 48 -2z m-83
-39 c-6 -4 -64 -5 -130 -1 l-120 5 130 2 c71 1 125 -1 120 -6z m632 -8 c-3 -3
-12 -4 -19 -1 -8 3 -5 6 6 6 11 1 17 -2 13 -5z m-78 -60 c2 -2 -137 -4 -310
-3 -194 0 -306 4 -294 9 18 9 595 2 604 -6z m109 -11 c-10 -2 -26 -2 -35 0
-10 3 -2 5 17 5 19 0 27 -2 18 -5z m-685 -10 c-7 -2 -21 -2 -30 0 -10 3 -4 5
12 5 17 0 24 -2 18 -5z m802 -36 c28 -2 -22 -4 -110 -5 -88 -1 -155 2 -149 6
11 6 138 6 259 -1z m293 -4 c-10 -2 -28 -2 -40 0 -13 2 -5 4 17 4 22 1 32 -1
23 -4z m832 -213 c12 -8 12 -10 -5 -10 -11 0 -27 5 -35 10 -12 8 -12 10 5 10
11 0 27 -5 35 -10z m-146 -155 c-10 -8 -25 -15 -33 -15 -11 0 -9 4 5 15 10 8
25 15 33 15 11 0 9 -4 -5 -15z m-94 -51 c0 -2 -12 -4 -27 -4 -21 0 -24 3 -14
9 13 8 41 5 41 -5z m-260 -74 c0 -11 -7 -20 -15 -20 -17 0 -18 2 -9 24 9 23
24 20 24 -4z m167 -16 c-3 -3 -12 -4 -19 -1 -8 3 -5 6 6 6 11 1 17 -2 13 -5z
m-80 -20 c-3 -3 -12 -4 -19 -1 -8 3 -5 6 6 6 11 1 17 -2 13 -5z m80 0 c-3 -3
-12 -4 -19 -1 -8 3 -5 6 6 6 11 1 17 -2 13 -5z m106 -11 c-7 -2 -21 -2 -30 0
-10 3 -4 5 12 5 17 0 24 -2 18 -5z m-536 -109 c-3 -3 -12 -4 -19 -1 -8 3 -5 6
6 6 11 1 17 -2 13 -5z"/>
<path d="M4395 1824 c-8 -9 -15 -25 -15 -38 0 -47 53 -64 64 -20 13 51 -18 88
-49 58z"/>
<path d="M3980 1845 c0 -32 3 -35 28 -35 34 0 53 16 44 39 -8 21 -22 31 -49
31 -20 0 -23 -5 -23 -35z"/>
<path d="M4135 1824 c-20 -20 -16 -63 8 -78 39 -25 76 43 42 78 -9 9 -20 16
-25 16 -5 0 -16 -7 -25 -16z"/>
<path d="M4267 1773 c-14 -13 -7 -33 11 -33 19 0 42 18 42 32 0 10 -44 11 -53
1z"/>
<path d="M4656 1824 c-31 -30 -14 -84 26 -84 18 0 38 28 38 54 0 16 -26 46
-40 46 -5 0 -16 -7 -24 -16z"/>
<path d="M4964 1769 c-3 -6 -2 -15 4 -21 15 -15 46 -5 50 15 3 12 -3 17 -22
17 -14 0 -28 -5 -32 -11z"/>
<path d="M5102 1828 c-7 -7 -12 -24 -12 -38 0 -30 17 -50 42 -50 23 0 34 44
19 76 -12 26 -30 31 -49 12z"/>
<path d="M5227 1773 c-14 -13 -7 -33 11 -33 19 0 42 18 42 32 0 10 -44 11 -53
1z"/>
<path d="M2514 1467 c-8 -21 2 -35 16 -21 5 5 6 15 0 24 -8 12 -10 12 -16 -3z"/>
<path d="M3300 1460 c0 -5 5 -10 10 -10 6 0 10 5 10 10 0 6 -4 10 -10 10 -5 0
-10 -4 -10 -10z"/>
<path d="M4012 1480 c0 -19 2 -27 5 -17 2 9 2 25 0 35 -3 9 -5 1 -5 -18z"/>
<path d="M4058 1503 c7 -3 16 -2 19 1 4 3 -2 6 -13 5 -11 0 -14 -3 -6 -6z"/>
<path d="M4050 1461 c0 -6 5 -13 10 -16 6 -3 10 1 10 9 0 9 -4 16 -10 16 -5 0
-10 -4 -10 -9z"/>
<path d="M5300 1490 c0 -5 9 -10 20 -10 11 0 20 5 20 10 0 6 -9 10 -20 10 -11
0 -20 -4 -20 -10z"/>
<path d="M5565 1480 c3 -5 8 -10 11 -10 2 0 4 5 4 10 0 6 -5 10 -11 10 -5 0
-7 -4 -4 -10z"/>
<path d="M5595 1471 c-3 -5 -1 -12 5 -16 5 -3 10 1 10 9 0 18 -6 21 -15 7z"/>
<path d="M6055 1450 c-3 -5 -1 -10 4 -10 6 0 11 5 11 10 0 6 -2 10 -4 10 -3 0
-8 -4 -11 -10z"/>
<path d="M9200 3085 c0 -11 11 -15 40 -15 29 0 40 4 40 15 0 11 -11 15 -40 15
-29 0 -40 -4 -40 -15z"/>
<path d="M6820 2145 c0 -8 2 -15 4 -15 2 0 6 7 10 15 3 8 1 15 -4 15 -6 0 -10
-7 -10 -15z"/>
<path d="M0 984 l0 -271 182 -6 c281 -11 494 -9 481 4 -5 5 -70 14 -144 19
-74 6 -159 14 -189 19 -30 6 -82 13 -115 16 -33 3 -85 13 -115 22 -30 8 -61
17 -69 20 -8 2 -11 6 -7 10 9 10 493 10 559 1 32 -5 63 -5 70 -1 14 9 -62 21
-143 22 -31 1 -61 6 -67 12 -6 6 -46 15 -89 20 -133 15 -113 29 40 29 86 0
135 4 131 10 -3 5 -28 12 -56 16 -27 4 -52 11 -55 15 -3 5 -10 6 -16 3 -7 -5
-8 -2 -4 5 5 7 13 10 20 8 6 -2 20 -1 31 4 14 5 4 8 -32 8 -29 1 -104 8 -167
16 -63 8 -135 14 -160 13 -51 -1 -76 14 -69 41 4 18 17 19 141 20 131 1 208 6
261 17 20 4 22 7 10 15 -7 5 -24 9 -36 9 -24 0 -32 18 -10 24 6 2 46 10 87 16
90 16 113 30 47 30 -66 0 -59 17 11 26 31 3 84 17 117 29 l60 23 -353 4 -352
3 0 -271z"/>
<path d="M1223 1113 c9 -2 23 -2 30 0 6 3 -1 5 -18 5 -16 0 -22 -2 -12 -5z"/>
<path d="M1531 1036 c12 -10 59 -15 59 -6 0 5 -14 10 -32 10 -17 0 -29 -2 -27
-4z"/>
<path d="M1628 1033 c12 -2 30 -2 40 0 9 3 -1 5 -23 4 -22 0 -30 -2 -17 -4z"/>
<path d="M1800 1035 c0 -16 62 -26 118 -20 92 10 75 25 -28 25 -49 0 -90 -2
-90 -5z"/>
<path d="M2003 1023 c9 -2 25 -2 35 0 9 3 1 5 -18 5 -19 0 -27 -2 -17 -5z"/>
<path d="M990 887 c3 -3 111 -15 240 -27 223 -21 235 -21 247 -4 7 10 11 19 9
22 -7 6 -502 15 -496 9z"/>
<path d="M1605 870 c33 -4 121 -8 195 -7 l135 0 -100 7 c-55 4 -143 8 -195 7
-89 0 -91 0 -35 -7z"/>
<path d="M1165 751 c-26 -6 -21 -8 30 -14 72 -8 642 -21 635 -14 -3 2 -124 10
-270 16 -146 6 -287 13 -315 15 -27 2 -63 0 -80 -3z"/>
<path d="M1848 719 c-27 -17 530 -28 682 -14 l95 9 -75 8 c-89 8 -687 6 -702
-3z"/>
<path d="M3130 710 c36 -11 50 -11 50 0 0 6 -17 10 -37 9 -34 -1 -35 -2 -13
-9z"/>
<path d="M3310 681 c0 -11 149 -11 156 1 3 4 -31 8 -75 8 -45 0 -81 -4 -81 -9z"/>
<path d="M1 616 c-1 -55 2 -67 11 -58 7 7 30 13 53 13 22 1 32 3 23 6 -68 18
87 24 226 9 44 -5 66 -4 62 2 -9 15 -58 23 -204 32 -74 5 -140 11 -147 14 -7
2 -15 15 -18 28 -2 13 -5 -8 -6 -46z"/>
<path d="M1068 673 c17 -2 47 -2 65 0 17 2 3 4 -33 4 -36 0 -50 -2 -32 -4z"/>
<path d="M2248 673 c6 -2 18 -2 25 0 6 3 1 5 -13 5 -14 0 -19 -2 -12 -5z"/>
<path d="M2320 670 c0 -5 23 -10 51 -10 31 0 48 4 44 10 -3 6 -26 10 -51 10
-24 0 -44 -4 -44 -10z"/>
<path d="M3643 673 c9 -2 25 -2 35 0 9 3 1 5 -18 5 -19 0 -27 -2 -17 -5z"/>
<path d="M1205 660 c17 -4 41 -8 55 -9 20 0 22 1 10 9 -8 5 -33 9 -55 9 -39
-1 -39 -2 -10 -9z"/>
<path d="M1303 653 c9 -2 23 -2 30 0 6 3 -1 5 -18 5 -16 0 -22 -2 -12 -5z"/>
<path d="M1488 643 c12 -2 30 -2 40 0 9 3 -1 5 -23 4 -22 0 -30 -2 -17 -4z"/>
<path d="M3455 600 c-16 -7 -13 -9 18 -9 20 -1 37 4 37 9 0 12 -27 12 -55 0z"/>
<path d="M3520 600 c0 -5 12 -10 26 -10 14 0 23 4 19 10 -3 6 -15 10 -26 10
-10 0 -19 -4 -19 -10z"/>
<path d="M4225 590 c-16 -7 -17 -9 -3 -9 9 -1 20 4 23 9 7 11 7 11 -20 0z"/>
<path d="M3153 573 c9 -2 23 -2 30 0 6 3 -1 5 -18 5 -16 0 -22 -2 -12 -5z"/>
<path d="M3200 570 c0 -6 7 -10 15 -10 8 0 15 2 15 4 0 2 -7 6 -15 10 -8 3
-15 1 -15 -4z"/>
<path d="M3278 563 c7 -3 16 -2 19 1 4 3 -2 6 -13 5 -11 0 -14 -3 -6 -6z"/>
<path d="M1018 553 c7 -3 16 -2 19 1 4 3 -2 6 -13 5 -11 0 -14 -3 -6 -6z"/>
<path d="M3868 552 c-69 -4 -76 -17 -13 -26 47 -8 85 -1 85 14 0 14 -10 15
-72 12z"/>
<path d="M1138 543 c12 -2 32 -2 45 0 12 2 2 4 -23 4 -25 0 -35 -2 -22 -4z"/>
<path d="M3526 541 c-40 -15 6 -23 94 -17 143 12 161 24 35 24 -60 1 -119 -3
-129 -7z"/>
<path d="M1258 533 c6 -2 18 -2 25 0 6 3 1 5 -13 5 -14 0 -19 -2 -12 -5z"/>
<path d="M2688 533 c6 -2 18 -2 25 0 6 3 1 5 -13 5 -14 0 -19 -2 -12 -5z"/>
<path d="M3 445 c0 -38 2 -55 4 -37 3 19 10 32 19 32 8 0 14 5 14 10 0 6 -6
10 -14 10 -8 0 -17 12 -19 28 -2 15 -4 -4 -4 -43z"/>
<path d="M1123 453 c9 -2 25 -2 35 0 9 3 1 5 -18 5 -19 0 -27 -2 -17 -5z"/>
<path d="M4150 400 c8 -5 22 -9 30 -9 10 0 8 3 -5 9 -27 12 -43 12 -25 0z"/>
<path d="M3750 290 c-7 -14 -21 -20 -42 -20 -20 0 -28 -4 -22 -9 11 -12 159
-19 169 -9 13 13 -6 28 -36 28 -19 0 -29 5 -29 15 0 22 -27 18 -40 -5z"/>
<path d="M2 260 c0 -19 2 -27 5 -17 2 9 2 25 0 35 -3 9 -5 1 -5 -18z"/>
<path d="M3553 263 c-20 -7 -15 -23 7 -23 11 0 20 4 20 9 0 13 -12 19 -27 14z"/>
<path d="M3776 211 c-4 -7 -5 -15 -2 -18 9 -9 19 4 14 18 -4 11 -6 11 -12 0z"/>
<path d="M3830 191 c0 -11 -8 -22 -17 -24 -14 -4 -12 -5 5 -6 17 -1 22 4 22
24 0 14 -2 25 -5 25 -3 0 -5 -9 -5 -19z"/>
<path d="M2 40 c0 -14 2 -19 5 -12 2 6 2 18 0 25 -3 6 -5 1 -5 -13z"/>
<path d="M3210 35 c0 -33 25 -42 50 -20 24 22 10 45 -26 45 -19 0 -24 -5 -24
-25z"/>
<path d="M3280 10 c0 -5 18 -10 41 -10 24 0 38 4 34 10 -3 6 -22 10 -41 10
-19 0 -34 -4 -34 -10z"/>
</g>
</svg>
