<?xml version="1.0" standalone="no"?>
<!DOCTYPE svg PUBLIC "-//W3C//DTD SVG 20010904//EN"
 "http://www.w3.org/TR/2001/REC-SVG-20010904/DTD/svg10.dtd">
<svg version="1.0" xmlns="http://www.w3.org/2000/svg"
 width="428.000000pt" height="200.000000pt" viewBox="0 0 428.000000 200.000000"
 preserveAspectRatio="xMidYMid meet">

<g transform="translate(0.000000,200.000000) scale(0.100000,-0.100000)"
fill="#000000" stroke="none">
<path d="M1260 1895 c-14 -8 -31 -14 -39 -15 -32 0 -212 -127 -305 -214 -33
-31 -68 -58 -78 -62 -10 -3 -18 -9 -18 -14 0 -5 -42 -53 -93 -107 -153 -161
-305 -344 -339 -407 -27 -51 -85 -177 -108 -236 -12 -30 -25 -59 -30 -65 -4
-5 -13 -34 -20 -63 -6 -28 -16 -54 -20 -57 -4 -3 -6 -24 -4 -48 2 -23 -1 -52
-8 -65 -9 -18 -9 -25 3 -35 8 -6 26 -39 38 -72 30 -75 34 -80 54 -61 22 23 26
21 47 -27 11 -24 28 -52 40 -62 30 -27 24 -39 -10 -19 -48 29 -49 6 -1 -37 32
-29 47 -37 56 -29 9 7 16 6 25 -5 11 -13 10 -14 -4 -9 -24 9 -20 -1 16 -37 53
-52 146 -78 270 -75 94 3 117 7 257 55 178 60 245 93 333 165 175 145 269 387
213 547 -26 74 -115 134 -169 113 -26 -10 -14 -27 31 -44 67 -25 76 -37 71
-100 -10 -143 -249 -425 -391 -460 -23 -6 -67 -21 -97 -35 -69 -30 -108 -41
-190 -54 -80 -12 -204 -1 -246 22 -55 29 -94 67 -94 92 0 14 -10 33 -21 44
-40 38 -32 178 16 275 8 16 15 38 15 48 0 10 23 58 51 106 28 48 56 97 62 109
7 12 41 54 77 94 36 40 79 93 95 118 71 106 106 149 270 333 141 156 303 289
358 292 43 2 56 -35 38 -102 -30 -107 -30 -119 -2 -147 32 -30 48 -31 95 -7
41 20 63 71 73 168 5 53 3 65 -20 101 -27 42 -78 73 -121 73 -15 0 -43 7 -63
15 -44 19 -80 19 -113 0z m-990 -1161 c0 -8 -5 -12 -10 -9 -6 4 -8 11 -5 16 9
14 15 11 15 -7z m5 -71 c-4 -10 -8 -60 -10 -112 -2 -51 -6 -95 -9 -98 -3 -3
-10 6 -16 21 -13 35 -13 133 0 141 6 4 8 15 5 26 -8 23 1 39 22 39 10 0 13 -5
8 -17z"/>
<path d="M2188 1803 c-24 -27 -154 -274 -168 -319 -7 -21 -25 -63 -41 -92 -28
-49 -104 -234 -178 -429 -17 -46 -42 -107 -55 -135 -14 -29 -39 -100 -56 -157
-38 -126 -35 -139 43 -170 l54 -22 49 23 c45 21 49 26 56 68 4 25 16 70 28
100 12 30 26 69 32 85 21 56 75 130 140 190 65 61 132 108 141 98 7 -6 -12
-61 -30 -90 -29 -44 -93 -248 -93 -294 0 -42 4 -51 40 -83 22 -20 48 -36 58
-36 9 0 42 15 72 33 51 31 61 44 135 173 85 148 136 223 180 264 24 22 33 24
103 21 42 -1 79 -5 81 -7 3 -2 -5 -23 -16 -47 -12 -23 -36 -82 -54 -132 -29
-79 -33 -102 -33 -195 -1 -129 13 -161 93 -203 l52 -29 57 22 c85 32 125 73
175 183 30 67 50 76 41 18 -13 -80 63 -174 128 -158 53 14 115 87 209 249 33
58 150 240 165 257 2 2 21 -4 44 -13 22 -9 56 -16 75 -16 34 0 35 -1 35 -39 0
-36 -7 -44 -137 -166 -76 -70 -149 -143 -162 -161 -28 -39 -23 -73 15 -111 24
-24 31 -25 93 -21 86 6 132 32 200 109 89 101 191 298 191 369 0 12 19 34 51
57 28 21 81 66 118 100 51 48 63 65 54 74 -9 9 -35 -5 -114 -61 -56 -39 -109
-74 -116 -77 -8 -3 -27 3 -42 14 -44 33 -108 63 -135 63 -14 0 -27 4 -30 9 -5
8 46 87 105 162 40 51 37 79 -10 122 -56 51 -73 53 -123 19 -131 -90 -240
-286 -194 -347 9 -11 16 -26 16 -33 0 -21 -84 -142 -166 -238 -94 -110 -92
-109 -99 -102 -10 10 33 181 80 318 25 74 43 144 41 156 -7 27 -63 57 -100 52
-25 -3 -32 -11 -50 -58 -12 -31 -36 -82 -54 -114 -18 -32 -55 -104 -82 -160
-62 -127 -138 -266 -167 -303 -35 -45 -45 -18 -38 107 4 77 15 138 42 233 35
125 35 128 17 148 -37 41 -75 61 -135 69 -34 5 -63 10 -65 13 -2 2 5 35 16 73
24 83 20 106 -23 133 -53 33 -110 37 -150 12 -93 -57 -118 -162 -62 -264 l29
-55 -26 -38 c-14 -22 -60 -79 -103 -129 -43 -49 -88 -103 -101 -120 -12 -16
-25 -27 -28 -24 -7 7 22 108 65 225 32 89 33 92 16 118 -22 32 -54 46 -110 46
-48 0 -108 -31 -212 -110 -37 -28 -69 -49 -71 -47 -3 2 7 24 21 48 13 24 25
51 25 59 0 9 16 45 35 80 19 36 35 71 35 78 0 7 12 30 26 52 15 22 24 46 20
55 -3 9 4 30 16 48 47 70 56 85 97 172 23 49 48 109 54 133 11 43 11 45 -21
73 -18 16 -41 29 -51 29 -11 0 -26 2 -33 5 -8 3 -21 -2 -30 -12z m-88 -500
c-1 -5 -7 -19 -15 -33 l-14 -25 -1 26 c0 14 3 29 7 32 9 9 23 9 23 0z m600 -9
c0 -24 -55 -98 -84 -113 -58 -31 -43 26 23 87 49 45 61 51 61 26z m966 -602
c-9 -17 -38 -54 -65 -84 -47 -49 -50 -51 -51 -27 0 18 18 45 63 91 63 66 80
73 53 20z"/>
<path d="M3350 1391 c-28 -5 -36 -11 -38 -31 -4 -32 31 -70 63 -70 26 0 85 45
85 65 0 29 -51 46 -110 36z"/>
</g>
</svg>
